<?xml version="1.0" encoding="utf-8"?>
<!-- Generator: Adobe Illustrator 24.3.0, SVG Export Plug-In . SVG Version: 6.00 Build 0)  -->
<svg version="1.1" id="Layer_1" xmlns="http://www.w3.org/2000/svg" xmlns:xlink="http://www.w3.org/1999/xlink" x="0px" y="0px"
	 viewBox="0 0 500 500" style="enable-background:new 0 0 500 500;" xml:space="preserve">
<g>
	<g>
		<path d="M346.25,173.47v144.38h-192.5V173.47H346.25 M346.25,149.41h-192.5c-13.23,0-24.06,10.83-24.06,24.06v144.38
			c0,13.23,10.83,24.06,24.06,24.06h192.5c13.23,0,24.06-10.83,24.06-24.06V173.47C370.31,160.23,359.48,149.41,346.25,149.41
			L346.25,149.41z"/>
	</g>
	<polygon points="201.88,221.59 250,257.69 274.06,245.66 322.19,274.53 322.19,293.78 177.81,293.78 177.81,245.66 	"/>
	<circle cx="304.14" cy="215.58" r="18.05"/>
</g>
<g>
	<path d="M477.43,5C487.12,5,495,12.88,495,22.57v454.86c0,9.69-7.88,17.57-17.57,17.57H22.57C12.88,495,5,487.12,5,477.43V22.57
		C5,12.88,12.88,5,22.57,5H477.43 M477.43,0H22.57C10.11,0,0,10.11,0,22.57v454.86C0,489.89,10.11,500,22.57,500h454.86
		c12.47,0,22.57-10.11,22.57-22.57V22.57C500,10.11,489.89,0,477.43,0L477.43,0z"/>
</g>
</svg>
